<?xml version="1.0" encoding="UTF-8"?>
<svg width="673px" height="483px" viewBox="0 0 673 483" version="1.1" xmlns="http://www.w3.org/2000/svg" xmlns:xlink="http://www.w3.org/1999/xlink">
    <!-- Generator: Sketch 60.1 (88133) - https://sketch.com -->
    <title>Artboard</title>
    <desc>Created with Sketch.</desc>
    <defs>
        <rect id="path-1" x="39" y="98" width="482" height="324"></rect>
    </defs>
    <g id="Artboard" stroke="none" stroke-width="1" fill="none" fill-rule="evenodd">
        <g id="bars" transform="translate(39.000000, 247.000000)" fill="#E969C2">
            <rect id="Rectangle" x="0" y="134" width="8" height="27"></rect>
            <rect id="Rectangle" x="10" y="134" width="8" height="16"></rect>
            <rect id="Rectangle" x="20" y="134" width="8" height="4"></rect>
            <rect id="Rectangle" x="30" y="134" width="7" height="19"></rect>
            <rect id="Rectangle" x="42" y="134" width="8" height="34"></rect>
            <rect id="Rectangle" x="52" y="134" width="8" height="16"></rect>
            <rect id="Rectangle" x="62" y="134" width="8" height="7"></rect>
            <rect id="Rectangle" x="72" y="134" width="8" height="19"></rect>
            <rect id="Rectangle" x="83" y="134" width="9" height="2"></rect>
            <rect id="Rectangle" x="92" y="132" width="9" height="2"></rect>
            <rect id="Rectangle" x="103" y="134" width="8" height="22"></rect>
            <rect id="Rectangle" x="113" y="134" width="8" height="31"></rect>
            <rect id="Rectangle" x="124" y="134" width="8" height="22"></rect>
            <rect id="Rectangle" x="134" y="128" width="8" height="6"></rect>
            <rect id="Rectangle" x="144" y="119" width="8" height="15"></rect>
            <rect id="Rectangle" x="154" y="111" width="8" height="23"></rect>
            <rect id="Rectangle" x="165" y="119" width="8" height="15"></rect>
            <rect id="Rectangle" x="186" y="134" width="8" height="8"></rect>
            <rect id="Rectangle" x="196" y="116" width="8" height="18"></rect>
            <rect id="Rectangle" x="206" y="119" width="8" height="15"></rect>
            <rect id="Rectangle" x="217" y="116" width="8" height="18"></rect>
            <rect id="Rectangle" x="226" y="134" width="8" height="5"></rect>
            <rect id="Rectangle" x="248" y="103" width="8" height="31"></rect>
            <rect id="Rectangle" x="258" y="104" width="8" height="30"></rect>
            <rect id="Rectangle" x="268" y="112" width="8" height="22"></rect>
            <rect id="Rectangle" x="278" y="115" width="8" height="19"></rect>
            <rect id="Rectangle" x="288" y="77" width="8" height="57"></rect>
            <rect id="Rectangle" x="299" y="68" width="8" height="67"></rect>
            <rect id="Rectangle" x="310" y="71" width="8" height="63"></rect>
            <rect id="Rectangle" x="320" y="65" width="8" height="69"></rect>
            <rect id="Rectangle" x="330" y="73" width="8" height="61"></rect>
            <rect id="Rectangle" x="340" y="74" width="8" height="60"></rect>
            <rect id="Rectangle" x="350" y="26" width="8" height="108"></rect>
            <rect id="Rectangle" x="361" y="26" width="8" height="108"></rect>
            <rect id="Rectangle" x="371" y="28" width="8" height="106"></rect>
            <rect id="Rectangle" x="381" y="24" width="8" height="110"></rect>
            <rect id="Rectangle" x="392" y="41" width="8" height="93"></rect>
            <rect id="Rectangle" x="402" y="41" width="8" height="93"></rect>
            <rect id="Rectangle" x="412" y="31" width="8" height="103"></rect>
            <rect id="Rectangle" x="423" y="51" width="8" height="83"></rect>
            <rect id="Rectangle" x="433" y="63" width="8" height="71"></rect>
            <rect id="Rectangle" x="444" y="49" width="8" height="85"></rect>
            <rect id="Rectangle" x="454" y="8" width="8" height="126"></rect>
            <rect id="Rectangle" x="464" y="0" width="8" height="135"></rect>
            <rect id="Rectangle" x="474" y="33" width="8" height="101"></rect>
        </g>
        <g id="lines" transform="translate(39.000000, 139.000000)" stroke="#505050" stroke-linecap="square">
            <line x1="0.45046729" y1="0.5" x2="481.549533" y2="0.5" id="Line"></line>
            <line x1="0.45046729" y1="40.5" x2="481.549533" y2="40.5" id="Line"></line>
            <line x1="0.45046729" y1="81.5" x2="481.549533" y2="81.5" id="Line"></line>
            <line x1="0.45046729" y1="121.5" x2="481.549533" y2="121.5" id="Line"></line>
            <line x1="0.45046729" y1="161.5" x2="481.549533" y2="161.5" id="Line"></line>
            <line x1="0.45046729" y1="201.5" x2="481.549533" y2="201.5" id="Line"></line>
            <line x1="0.45046729" y1="242.5" x2="481.549533" y2="242.5" id="Line"></line>
        </g>
        <text id="Target-of-100,000" font-family="OpenSans-Bold, Open Sans" font-size="14" font-weight="bold" fill="#F5A623">
            <tspan x="46.3544922" y="334">Target of 100,000</tspan>
        </text>
        <g id="years" transform="translate(36.000000, 435.000000)" fill="#636363" font-family="Roboto-Regular, Roboto" font-weight="normal">
            <text font-size="16">
                <tspan x="234.472656" y="44">years</tspan>
            </text>
            <text id="1970" font-size="14">
                <tspan x="0.732910156" y="15">1970</tspan>
            </text>
            <text id="1975" font-size="14">
                <tspan x="47.7363281" y="15">1975</tspan>
            </text>
            <text id="1980" font-size="14">
                <tspan x="98.7329102" y="15">1980</tspan>
            </text>
            <text id="1985" font-size="14">
                <tspan x="149.736328" y="15">1985</tspan>
            </text>
            <text id="1990" font-size="14">
                <tspan x="200.73291" y="15">1990</tspan>
            </text>
            <text id="1995" font-size="14">
                <tspan x="253.736328" y="15">1995</tspan>
            </text>
            <text id="2000" font-size="14">
                <tspan x="306.726074" y="15">2000</tspan>
            </text>
            <text id="2005" font-size="14">
                <tspan x="357.729492" y="15">2005</tspan>
            </text>
            <text id="2010" font-size="14">
                <tspan x="408.729492" y="15">2010</tspan>
            </text>
            <text id="2016" font-size="14">
                <tspan x="471.73291" y="15">2016</tspan>
            </text>
        </g>
        <g id="thousands" transform="translate(-1.000000, 89.000000)" fill="#636363" font-family="Roboto-Regular, Roboto" font-size="14" font-weight="normal">
            <text id="700">
                <tspan x="4.67041016" y="15">700</tspan>
            </text>
            <text id="600">
                <tspan x="4.67041016" y="56">600</tspan>
            </text>
            <text id="500">
                <tspan x="4.67041016" y="96">500</tspan>
            </text>
            <text id="400">
                <tspan x="4.67041016" y="136">400</tspan>
            </text>
            <text id="300">
                <tspan x="4.67041016" y="177">300</tspan>
            </text>
            <text id="200">
                <tspan x="4.67041016" y="217">200</tspan>
            </text>
            <text id="100">
                <tspan x="0.670410156" y="257">100</tspan>
            </text>
            <text id="-100">
                <tspan x="2.75292969" y="338">-100</tspan>
            </text>
            <text id="0">
                <tspan x="20.5556641" y="297">0</tspan>
            </text>
        </g>
        <text id="Target-of-100,000" font-family="OpenSans-Bold, Open Sans" font-size="14" font-weight="bold" fill="#F5A623">
            <tspan x="46.3544922" y="334">Target of 100,000</tspan>
        </text>
        <g id="paths" transform="translate(39.000000, 125.000000)" fill-rule="nonzero">
            <path d="M473.306364,128.179547 C472.001444,130.71976 470.972837,132.597307 470.220542,133.812189 C466.987776,139.263132 464.746881,140.062604 460.375299,135.374792 C456.360287,131.120403 450.527975,129.02613 444.689036,129.742151 C439.311896,130.405858 434.022515,127.980096 431.059987,123.491736 C427.570069,118.476868 423.712791,117.495698 418.459546,120.911623 C417.504411,121.529396 414.785948,120.620906 413.573661,119.567057 C405.785633,112.51717 401.560996,103.068868 396.67511,94.1293208 C396.126249,93.2179226 395.499444,92.354727 394.801575,91.5492075 C394.148925,92.2736116 393.615829,93.095287 393.221928,93.9839623 C391.385129,99.9436604 389.878954,106.012377 387.858475,111.935736 C386.597553,114.81483 385.098533,117.58605 383.376686,120.22117 C381.797038,117.822755 380.107183,115.460679 378.601008,112.953245 C377.053898,110.821238 375.817278,108.484778 374.92741,106.012377 C373.457971,100.743132 371.73138,102.959849 369.306805,105.249245 C364.494392,109.791698 359.351355,114.007094 354.612413,118.585887 C352.481727,120.620906 350.938815,120.766264 348.734657,118.585887 C347.301953,117.241321 345.68557,116.042113 344.216131,114.733887 C342.544311,112.650819 339.855757,111.637484 337.206554,112.091927 C334.557351,112.546369 332.37068,114.395998 331.505482,116.914264 C329.264587,121.529396 326.766541,126.035509 324.635854,130.686981 C322.982735,134.320943 320.962256,134.575321 317.472338,132.903698 C310.60271,129.451434 310.345558,129.451434 305.790296,136.065245 C301.235035,142.679057 297.157341,149.656264 292.675551,156.306415 C292.308192,156.851509 289.736673,156.742491 289.001953,156.052038 C286.963132,154.112038 285.117823,151.982406 283.491556,149.692604 C282.82072,148.379683 281.530599,147.485594 280.054051,147.31032 C278.577503,147.135046 277.110167,147.70181 276.14436,148.820453 C272.571028,151.973235 269.254515,155.399774 266.225646,159.068226 C263.87412,161.722203 260.492861,163.262095 256.925511,163.303693 C253.358162,163.34529 249.941148,161.88467 247.527032,159.286264 C242.502428,154.26063 236.962115,149.76659 230.995841,145.876943 C224.971141,141.952264 220.452615,143.478528 217.623945,150.056 C213.820662,159.290401 207.985203,167.570521 200.541714,174.294528 C198.815123,175.820792 197.859987,176.438566 196.059924,174.766943 C193.234767,172.504385 190.548288,170.077449 188.014745,167.499019 C186.214682,165.282302 184.892187,165.100604 183.569691,167.499019 C181.239217,171.994834 176.145304,174.380137 171.15293,173.313358 C169.575335,173.402735 168.102769,174.124512 167.075236,175.312038 C164.320038,178.400906 161.932199,181.780491 159.397417,185.051057 C158.699433,185.959547 158.221865,187.231434 157.303466,187.812868 C147.678639,194.099623 138.494644,191.664868 133.829175,180.145208 C130.890296,172.877283 127.988154,165.609358 124.939067,158.123396 C124.209845,157.766289 123.353923,157.766289 122.624701,158.123396 C120.494014,159.976717 118.730687,162.302453 116.489792,163.974075 C114.952226,165.348922 112.941322,166.089999 110.869187,166.045434 C106.130246,164.846226 104.293447,167.608038 102.456648,170.805925 C101.61172,172.259509 100.803529,173.676755 100.068809,175.166679 C95.3666037,184.68766 83.0967864,183.960868 77.2557656,176.765623 C75.4836692,173.906589 72.0899023,172.453277 68.7697543,173.13166 C65.2751977,173.908592 61.65987,172.460689 59.6959672,169.497698 C55.6917454,164.264792 51.5773157,159.068226 47.5730939,153.835321 C44.3403277,149.583585 42.8708885,149.401887 38.6462508,152.854151 C34.9726528,155.761321 31.5194707,158.777509 27.8091367,161.57566 C25.1768182,163.779845 21.7052896,164.742059 18.298426,164.211773 C14.8915624,163.681488 11.8864991,161.711178 10.0656585,158.813849 C6.64921235,153.544604 3.52665406,148.09366 0.404095778,142.642717 C-0.0367359798,141.806906 0.404095778,140.535019 0.404095778,139.48117 C1.32985118,139.933009 2.16406578,140.54884 2.86540643,141.298151 C6.07330499,145.950819 8.96941204,150.806514 11.5350977,155.834 C14.8045999,163.101925 23.3273472,162.302453 27.9560807,158.232415 C31.4372063,154.988641 35.0915531,151.93173 38.9034026,149.07483 C43.3851922,145.949623 45.552615,146.494717 48.9323251,150.855472 C53.1936988,156.342755 57.4918084,161.757358 61.7164461,167.280981 C63.5653277,169.956817 66.9819124,171.098214 70.0922495,170.079132 C73.0581145,169.262645 76.2133546,170.475622 77.8435413,173.058981 C81.5171393,177.492415 85.7785129,180.799321 92.0603655,178.291887 C93.374416,177.789048 94.5374864,176.963674 95.4400756,175.893472 C97.2403187,173.521537 98.8377322,171.005407 100.215753,168.37117 C101.620396,164.193128 105.891302,161.648981 110.281411,162.375132 C112.448834,162.629509 115.314241,160.376453 117.187776,158.74117 C125.049275,151.255208 124.975803,151.146189 128.833081,160.994226 C131.551544,167.898755 134.123062,174.803283 136.878261,181.671472 C139.633459,188.53966 151.903277,189.956906 156.458538,184.106226 C158.001449,182.180226 159.434152,180.145208 160.83012,178.110189 C164.246566,173.168 168.177316,169.097962 175.046944,170.478868 C176.002079,170.478868 177.398047,169.606717 178.316446,168.807245 C180.12393,167.103943 181.840597,165.308762 183.459483,163.428981 C185.847322,160.63083 187.426969,160.085736 189.484184,164.083094 C191.287227,166.846596 193.532999,169.301337 196.133396,171.351019 C197.002905,171.822931 198.055823,171.822931 198.925331,171.351019 C204.98781,166.650873 209.699527,160.461424 212.591115,153.399245 C213.869809,149.854827 215.455339,146.426182 217.330057,143.151472 C218.492081,141.865585 220.142101,141.115291 221.885318,141.080113 C229.63661,140.716717 235.404159,145.150151 240.988028,149.619925 C243.596657,151.879407 246.051097,154.307366 248.335224,156.887849 C254.066037,162.702189 259.61317,162.157094 264.866415,155.943019 C268.221029,152.28323 271.910308,148.937879 275.887209,145.949623 C279.230183,143.187811 282.316005,144.132642 284.850788,147.439547 C285.548771,148.384377 286.687587,149.002151 287.238626,149.983321 C289.479521,154.053358 290.912224,152.054679 292.638815,149.510906 C297.267549,142.897094 302.079962,136.392302 306.782168,129.778491 C309.096534,126.471585 311.631317,126.544264 314.864083,128.579283 C320.337744,131.995208 320.37448,131.849849 323.276623,125.890151 C325.444045,121.420377 327.648204,116.986943 329.999307,112.626189 C330.550347,111.608679 331.762634,110.155094 332.717769,110.155094 C337.860807,110.155094 343.481411,108.556151 347.412161,114.007094 C349.689792,117.314 352.040895,117.314 354.759357,114.225132 C360.086074,108.592491 365.780151,103.323245 371.327284,97.9449811 C374.266163,95.0741509 375.000882,97.9449811 375.625394,99.7619623 C377.609137,104.086377 379.298992,108.483472 381.392943,112.807887 C381.810607,113.509334 382.330497,114.146062 382.935854,114.697547 C383.471953,113.985717 383.92774,113.218021 384.295085,112.408151 C386.90334,104.449774 389.401386,96.418717 392.083113,88.4966792 C392.660554,87.3997806 393.417779,86.4051343 394.324008,85.5531698 C395.300524,86.3300094 396.165634,87.2346865 396.895526,88.2423019 C401.597732,96.3823774 406.116257,104.631472 410.855198,112.771547 C413.316509,117.023283 416.328859,119.857774 421.875992,116.405509 C423.18968,115.45983 424.860173,115.140321 426.43554,115.533424 C428.010907,115.926526 429.328324,116.991609 430.03138,118.440528 C435.027473,126.834981 443.807372,126.653283 452.072968,127.489094 C455.36375,127.768019 458.423956,129.275117 460.632451,131.704491 C464.967297,136.174264 465.591808,135.956226 468.787839,130.396264 C470.780994,126.625987 473.156339,122.881699 475.59073,119.567057 C478.516256,116.505126 482.196873,115.897556 482,116.405509 C481.803127,116.913463 482.335024,116.902776 481.860868,117.331187 C482,117.482809 482.063951,117.484172 481.860868,117.868485" id="Path" fill="#8BD4FA"></path>
            <path d="M252.592432,130.494259 L242.043243,150.157778 L228.516757,150.741481 C224.841081,143.737037 224.032432,134.178889 219.731892,126.882593 C217.783784,131.552222 215.725405,137.571667 214.218378,141.985926 C212.40861,146.630664 209.495832,150.773127 205.727568,154.061296 C200.875676,158.84037 195.876757,163.473519 191.465946,168.653889 C189.559669,171.458104 186.345377,173.105287 182.938041,173.024064 C179.530704,172.942842 176.399792,171.144405 174.631351,168.252593 C172.425946,165.115185 170.404324,161.904815 167.757838,157.891852 C162.354595,163.181667 156.730811,168.033704 151.842162,173.542407 C149.877149,176.441827 146.278098,177.788683 142.873514,176.898704 C138.082723,176.294985 133.257315,176.002511 128.428108,176.023148 L117.217297,196.233889 C116.233845,196.035749 115.297942,195.651806 114.460541,195.102963 C110.04973,191.454815 105.785946,187.332407 101.448649,183.501852 C99.4637838,181.750741 97.4421622,180.072593 95.347027,178.321481 C86.7459459,180.656296 81.3427027,186.675741 76.16,192.914074 C71.7491892,192.257407 70.7935135,188.062037 68.147027,185.617778 C66.6767568,184.304444 65.5740541,182.516852 64.0302703,181.312963 C58.4064865,177.081111 56.2378378,176.971667 50.0994595,180.802222 C46.9273825,183.367336 42.4252648,183.531178 39.0724324,181.203519 C35.3967568,178.722778 32.0151351,176.278519 28.6702703,173.578889 C27.5291913,172.49014 26.5290726,171.264673 25.692973,169.930741 C19.8486486,170.550926 18.1210811,175.111111 13.8205405,177.591852 L0.147027027,162.999259 C4.66810811,162.634444 5.84432432,165.698889 7.79243243,167.340556 C9.74054054,168.982222 11.8724324,171.207593 13.9308108,173.214074 L25.3989189,164.969259 C29.6627027,172.885741 36.4259459,176.789259 43.9978378,180.619815 C45.8356757,179.707778 47.6735135,178.832222 49.6216216,177.774259 C54.5026464,174.057891 61.4323098,174.642896 65.6108108,179.124074 C69.0291892,182.188519 72.0064865,185.763704 75.1308108,189.047037 C78.8064865,185.873148 82.4821622,182.407407 86.1578378,179.488889 C91.9654054,175.184074 95.3837838,172.922222 103.176216,181.349444 C106.851892,185.289444 111.299459,188.645741 115.6,192.293889 C118.797838,186.89463 121.701622,182.261481 124.311351,177.701296 C125.774475,174.349689 129.300924,172.368816 132.949189,172.849259 L147.027027,173.980185 C153.863784,168.070185 159.708108,159.752407 168.713514,154.499074 C169.669189,155.63 170.441081,156.396111 171.065946,157.308148 C173.197838,160.482037 175.072432,163.838333 177.424865,166.793333 C178.56061,168.585049 180.470014,169.751983 182.593261,169.952003 C184.716508,170.152022 186.813015,169.362462 188.268108,167.814815 C195.437004,161.114739 202.188234,153.987665 208.484324,146.473148 C211.444325,141.67497 213.755332,136.51108 215.357838,131.114444 C216.864865,127.466296 218.151351,123.818148 219.548108,120.17 L220.797838,120.17 C224.032432,129.180926 227.303784,138.191852 230.795676,147.932407 L239.433514,146.692037 L250.791351,128.086481 C261.818378,127.758148 272.514595,128.086481 282.071351,123.015556 C284.938378,116.375926 287.695135,109.882222 290.488649,103.352037 C294.752432,93.477716 299.003964,83.5912346 303.243243,73.6925926 C306.019101,65.6341914 313.392058,60.0129022 321.952432,59.4283333 C325.317362,59.3837067 328.277136,57.2098763 329.303784,54.0290741 C330.473369,52.0913252 331.922216,50.3337742 333.604324,48.8122222 L342.940541,49.5783333 C347.725237,39.1961031 351.420388,28.3525921 353.967568,17.2192593 C356.307716,17.6935978 357.599221,19.7795689 358.861742,21.3206918 C360.415144,23.2168842 361.841427,24.679279 364.112432,26.0477778 L376.242162,12.1848148 L383.961081,23.1292593 L396.017297,15.9788889 L405.427027,26.1937037 L414.469189,16.4531481 C429.171892,24.4061111 432.847568,38.1596296 436.817297,52.277963 C440.799161,49.8657807 443.843046,46.1890515 445.455135,41.8442593 C449.314595,30.2431481 452.806486,18.5325926 456.482162,6.85851852 C457.07027,4.99796296 457.364324,3.21037037 457.805405,1.02148148 L471.258378,0.072962963 L482,16.4531481 L481.549533,20.4296296 L469.714595,3.50222222 L460.488649,3.50222222 C456.812973,15.5775926 453.137297,27.5435185 449.461622,39.4 C448.244414,42.9781896 446.524381,46.3679279 444.352432,49.4688889 C442.041521,52.368748 439.523303,55.099755 436.817297,57.6407407 C435.949599,56.2141489 435.187937,54.7266192 434.538378,53.19 C432.921081,48.337963 431.597838,43.34 429.796757,38.5974074 C427.916367,32.734297 424.413878,27.5135887 419.688649,23.5305556 C418.149105,22.4182554 416.554308,21.3833127 414.91027,20.4296296 L406.492973,29.5135185 C404.532018,28.8819477 403.194689,27.3854731 401.874263,26.1937037 C399.457368,24.0122992 397.581503,21.6965994 395.465946,19.4081481 L384.438919,26.1937037 L375.654054,16.8909259 L364.296216,31.1187037 L356.393514,22.4361111 C351.835676,32.8333333 350.255135,43.7048148 344.116757,52.4968519 L334.082162,51.7672222 C333.052973,53.6642593 331.95027,55.4153704 331.068108,57.3853704 C330.064027,60.1252519 327.462446,61.967535 324.525405,62.0185185 C314.821622,62.2374074 308.83027,67.4907407 305.191351,75.9544444 C301.221622,85.2207407 297.215135,94.487037 293.318919,103.789815 C290.745946,110.06463 288.577297,116.48537 285.967568,122.687222 C284.198375,125.977209 280.886231,128.168769 277.145946,128.524259 C271.742416,129.442442 266.295406,130.087779 260.825946,130.457778 C257.995676,130.676667 255.312432,130.494259 252.592432,130.494259 Z" id="Path" fill="#AE82D7"></path>
        </g>
        <line x1="41.5" y1="341.5" x2="521.5" y2="341.5" id="Line-2" stroke="#F5A623" stroke-width="4" stroke-linecap="square" stroke-dasharray="4,14"></line>
        <g id="Group" transform="translate(528.000000, 98.000000)">
            <rect id="Rectangle" stroke="#636363" x="0" y="0" width="144" height="74"></rect>
            <rect id="Rectangle" fill="#E969C2" x="8" y="6" width="30" height="14"></rect>
            <rect id="Rectangle" fill="#AE82D7" x="8" y="37" width="30" height="4"></rect>
            <rect id="Rectangle" fill="#8BD4FA" x="8" y="60" width="30" height="4"></rect>
            <text id="Net-migration*" font-family="Roboto-Light, Roboto" font-size="12" font-weight="300" fill="#636363">
                <tspan x="52.328125" y="19">Net migration*</tspan>
            </text>
            <text id="Immigration" font-family="Roboto-Light, Roboto" font-size="12" font-weight="300" fill="#636363">
                <tspan x="52.7353516" y="42.2">Immigration</tspan>
            </text>
            <text id="Emigration" font-family="Roboto-Light, Roboto" font-size="12" font-weight="300" fill="#636363">
                <tspan x="52.21875" y="65">Emigration</tspan>
            </text>
        </g>
        <text id="Migration-(thousands" font-family="Roboto-Regular, Roboto" font-size="16" font-weight="normal" fill="#636363">
            <tspan x="-0.6953125" y="77">Migration (thousands)</tspan>
        </text>
        <text id="Long-term-Internatio" font-family="Roboto-Regular, Roboto" font-size="24" font-weight="normal" fill="#000000">
            <tspan x="98.1308594" y="19">Long-term International Migration</tspan>
            <tspan x="166.601562" y="51" font-family="Roboto-Light, Roboto" font-size="16" font-weight="300">UK, 1970 to 2016 (annual totals)</tspan>
        </text>
        <mask id="mask-2" fill="white">
            <use xlink:href="#path-1"></use>
        </mask>
        <use id="Rectangle" stroke="#636363" xlink:href="#path-1"></use>
        <text id="*The-net-migration-r" font-family="Roboto-Light, Roboto" font-size="10" font-weight="300" fill="#636363">
            <tspan x="531" y="196">*The net migration rate is the </tspan>
            <tspan x="531" y="209">difference between the number </tspan>
            <tspan x="531" y="222">of immigrants (people coming </tspan>
            <tspan x="531" y="235">into an area) and the number of </tspan>
            <tspan x="531" y="248">emigrants (people leaving an </tspan>
            <tspan x="531" y="261">area) throughout the year.</tspan>
            <tspan x="531" y="274">When the number of </tspan>
            <tspan x="531" y="287">immigrants is larger than the </tspan>
            <tspan x="531" y="300">number of emigrants, a positive </tspan>
            <tspan x="531" y="313">net migration rate occurs.</tspan>
        </text>
    </g>
</svg>