<?xml version="1.0" encoding="UTF-8"?>
<svg xmlns="http://www.w3.org/2000/svg" xmlns:xlink="http://www.w3.org/1999/xlink" width="673" height="486">
  <defs>
    <path id="a" d="M39 101h482v324H39z"/>
  </defs>
  <g fill="none" fill-rule="evenodd">
    <g fill="#E969C2">
      <path d="M39 384h8v27h-8zM49 384h8v16h-8zM59 384h8v4h-8zM69 384h7v19h-7zM81 384h8v34h-8zM91 384h8v16h-8zM101 384h8v7h-8zM111 384h8v19h-8zM122 384h9v2h-9zM131 382h9v2h-9zM142 384h8v22h-8zM152 384h8v31h-8zM163 384h8v22h-8zM173 378h8v6h-8zM183 369h8v15h-8zM193 361h8v23h-8zM204 369h8v15h-8zM225 384h8v8h-8zM235 366h8v18h-8zM245 369h8v15h-8zM256 366h8v18h-8zM265 384h8v5h-8zM287 353h8v31h-8zM297 354h8v30h-8zM307 362h8v22h-8zM317 365h8v19h-8zM327 327h8v57h-8zM338 318h8v67h-8zM349 321h8v63h-8zM359 315h8v69h-8zM369 323h8v61h-8zM379 324h8v60h-8zM389 276h8v108h-8zM400 276h8v108h-8zM410 278h8v106h-8zM420 274h8v110h-8zM431 291h8v93h-8zM441 291h8v93h-8zM451 281h8v103h-8zM462 301h8v83h-8zM472 313h8v71h-8zM483 299h8v85h-8zM493 258h8v126h-8zM503 250h8v135h-8zM513 283h8v101h-8z"/>
    </g>
    <g stroke="#505050" stroke-linecap="square">
      <path d="M39.45046729 142.5H520.549533M39.45046729 182.5H520.549533M39.45046729 223.5H520.549533M39.45046729 263.5H520.549533M39.45046729 303.5H520.549533M39.45046729 343.5H520.549533M39.45046729 384.5H520.549533"/>
    </g>
    <text fill="#F5A623" font-family="OpenSans-Bold, Open Sans" font-size="14" font-weight="bold">
      <tspan x="46.3544922" y="337">Target of 100,000</tspan>
    </text>
    <g fill="#636363" font-family="Roboto-Regular, Roboto">
      <text font-size="16" transform="translate(36 438)">
        <tspan x="234.472656" y="44">years</tspan>
      </text>
      <text font-size="14" transform="translate(36 438)">
        <tspan x=".73291016" y="15">1970</tspan>
      </text>
      <text font-size="14" transform="translate(36 438)">
        <tspan x="47.7363281" y="15">1975</tspan>
      </text>
      <text font-size="14" transform="translate(36 438)">
        <tspan x="98.7329102" y="15">1980</tspan>
      </text>
      <text font-size="14" transform="translate(36 438)">
        <tspan x="149.736328" y="15">1985</tspan>
      </text>
      <text font-size="14" transform="translate(36 438)">
        <tspan x="200.73291" y="15">1990</tspan>
      </text>
      <text font-size="14" transform="translate(36 438)">
        <tspan x="253.736328" y="15">1995</tspan>
      </text>
      <text font-size="14" transform="translate(36 438)">
        <tspan x="306.726074" y="15">2000</tspan>
      </text>
      <text font-size="14" transform="translate(36 438)">
        <tspan x="357.729492" y="15">2005</tspan>
      </text>
      <text font-size="14" transform="translate(36 438)">
        <tspan x="408.729492" y="15">2010</tspan>
      </text>
      <text font-size="14" transform="translate(36 438)">
        <tspan x="459.73291" y="15">2015</tspan>
      </text>
    </g>
    <g fill="#636363" font-family="Roboto-Regular, Roboto" font-size="14">
      <text transform="translate(-1 92)">
        <tspan x="4.67041016" y="15">700</tspan>
      </text>
      <text transform="translate(-1 92)">
        <tspan x="4.67041016" y="56">600</tspan>
      </text>
      <text transform="translate(-1 92)">
        <tspan x="4.67041016" y="96">500</tspan>
      </text>
      <text transform="translate(-1 92)">
        <tspan x="4.67041016" y="136">400</tspan>
      </text>
      <text transform="translate(-1 92)">
        <tspan x="4.67041016" y="177">300</tspan>
      </text>
      <text transform="translate(-1 92)">
        <tspan x="4.67041016" y="217">200</tspan>
      </text>
      <text transform="translate(-1 92)">
        <tspan x=".67041016" y="257">100</tspan>
      </text>
      <text transform="translate(-1 92)">
        <tspan x="2.75292969" y="338">-100</tspan>
      </text>
      <text transform="translate(-1 92)">
        <tspan x="20.5556641" y="297">0</tspan>
      </text>
    </g>
    <text fill="#F5A623" font-family="OpenSans-Bold, Open Sans" font-size="14" font-weight="bold">
      <tspan x="46.3544922" y="337">Target of 100,000</tspan>
    </text>
    <g fill-rule="nonzero">
      <path fill="#8BD4FA" d="M512.306364 256.179547c-1.30492 2.540213-2.333527 4.41776-3.085822 5.632642-3.232766 5.450943-5.473661 6.250415-9.845243 1.562603-4.015012-4.254389-9.847324-6.348662-15.686263-5.632641-5.37714.663707-10.666521-1.762055-13.629049-6.250415-3.489918-5.014868-7.347196-5.996038-12.600441-2.580113-.955135.617773-3.673598-.290717-4.885885-1.344566-7.788028-7.049887-12.012665-16.498189-16.898551-25.4377362-.548861-.9113982-1.175666-1.7745938-1.873535-2.5801133-.65265.7244041-1.185746 1.5460795-1.579647 2.4347548-1.836799 5.9596981-3.342974 12.0284147-5.363453 17.9517737-1.260922 2.879094-2.759942 5.650314-4.481789 8.285434-1.579648-2.398415-3.269503-4.760491-4.775678-7.267925-1.54711-2.132007-2.78373-4.468467-3.673598-6.940868-1.469439-5.269245-3.19603-3.052528-5.620605-.763132-4.812413 4.542453-9.95545 8.757849-14.694392 13.336642-2.130686 2.035019-3.673598 2.180377-5.877756 0-1.432704-1.344566-3.049087-2.543774-4.518526-3.852-1.67182-2.083068-4.360374-3.096403-7.009577-2.64196-2.649203.454442-4.835874 2.304071-5.701072 4.822337-2.240895 4.615132-4.738941 9.121245-6.869628 13.772717-1.653119 3.633962-3.673598 3.88834-7.163516 2.216717-6.869628-3.452264-7.12678-3.452264-11.682042 3.161547-4.555261 6.613812-8.632955 13.591019-13.114745 20.24117-.367359.545094-2.938878.436076-3.673598-.254377-2.038821-1.94-3.88413-4.069632-5.510397-6.359434-.670836-1.312921-1.960957-2.20701-3.437505-2.382284-1.476548-.175274-2.943884.39149-3.909691 1.510133-3.573332 3.152782-6.889845 6.579321-9.918714 10.247773-2.351526 2.653977-5.732785 4.193869-9.300135 4.235467-3.567349.041597-6.984363-1.419023-9.398479-4.017429-5.024604-5.025634-10.564917-9.519674-16.531191-13.409321-6.0247-3.924679-10.543226-2.398415-13.371896 4.179057-3.803283 9.234401-9.638742 17.514521-17.082231 24.238528-1.726591 1.526264-2.681727 2.144038-4.48179.472415-2.825157-2.262558-5.511636-4.689494-8.045179-7.267924-1.800063-2.216717-3.122558-2.398415-4.445054 0-2.330474 4.495815-7.424387 6.881118-12.416761 5.814339-1.577595.089377-3.050161.811154-4.077694 1.99868-2.755198 3.088868-5.143037 6.468453-7.677819 9.739019-.697984.90849-1.175552 2.180377-2.093951 2.761811-9.624827 6.286755-18.808822 3.852-23.474291-7.66766-2.938879-7.267925-5.841021-14.53585-8.890108-22.021812-.729222-.357107-1.585144-.357107-2.314366 0-2.130687 1.853321-3.894014 4.179057-6.134909 5.850679-1.537566 1.374847-3.54847 2.115924-5.620605 2.071359-4.738941-1.199208-6.57574 1.562604-8.412539 4.760491-.844928 1.453584-1.653119 2.87083-2.387839 4.360754-4.7022053 9.520981-16.9720226 8.794189-22.8130434 1.598944-1.7720964-2.859034-5.1658633-4.312346-8.4860113-3.633963-3.4945566.776932-7.1098843-.670971-9.0737871-3.633962-4.0042218-5.232906-8.1186515-10.429472-12.1228733-15.662377-3.2327662-4.251736-4.7022054-4.433434-8.9268431-.98117-3.673598 2.90717-7.1267801 5.923358-10.8371141 8.721509-2.6323185 2.204185-6.1038471 3.166399-9.5107107 2.636113-3.4068636-.530285-6.4119269-2.500595-8.2327675-5.397924-3.41644615-5.269245-6.53900444-10.720189-9.66156272-16.171132-.44083176-.835811 0-2.107698 0-3.161547.9257554.451839 1.75997 1.06767 2.46131065 1.816981 3.20789856 4.652668 6.10400561 9.508363 8.66969127 14.535849 3.2695022 7.267925 11.7922495 6.468453 16.420983 2.398415 3.4811256-3.243774 7.1354724-6.300685 10.9473219-9.157585 4.4817896-3.125207 6.6492124-2.580113 10.0289225 1.780642 4.2613737 5.487283 8.5594833 10.901886 12.784121 16.425509 1.8488816 2.675836 5.2654663 3.817233 8.3758034 2.798151 2.965865-.816487 6.1211051.39649 7.7512918 2.979849 3.673598 4.433434 7.9349716 7.74034 14.2168242 5.232906 1.3140505-.502839 2.4771209-1.328213 3.3797101-2.398415 1.8002431-2.371935 3.3976566-4.888065 4.7756774-7.522302 1.404643-4.178042 5.675549-6.722189 10.065658-5.996038 2.167423.254377 5.03283-1.998679 6.906365-3.633962 7.861499-7.485962 7.788027-7.594981 11.645305 2.253056 2.718463 6.904529 5.289981 13.809057 8.04518 20.677246 2.755198 6.868188 15.025016 8.285434 19.580277 2.434754 1.542911-1.926 2.975614-3.961018 4.371582-5.996037 3.416446-4.942189 7.347196-9.012227 14.216824-7.631321.955135 0 2.351103-.872151 3.269502-1.671623 1.807484-1.703302 3.524151-3.498483 5.143037-5.378264 2.387839-2.798151 3.967486-3.343245 6.024701.654113 1.803043 2.763502 4.048815 5.218243 6.649212 7.267925.869509.471912 1.922427.471912 2.791935 0 6.062479-4.700146 10.774196-10.889595 13.665784-17.951774 1.278694-3.544418 2.864224-6.973063 4.738942-10.247773 1.162024-1.285887 2.812044-2.036181 4.555261-2.071359 7.751292-.363396 13.518841 4.070038 19.10271 8.539812 2.608629 2.259482 5.063069 4.687441 7.347196 7.267924 5.730813 5.81434 11.277946 5.269245 16.531191-.94483 3.354614-3.659789 7.043893-7.00514 11.020794-9.993396 3.342974-2.761812 6.428796-1.816981 8.963579 1.489924.697983.94483 1.836799 1.562604 2.387838 2.543774 2.240895 4.070037 3.673598 2.071358 5.400189-.472415 4.628734-6.613812 9.441147-13.118604 14.143353-19.732415 2.314366-3.306906 4.849149-3.234227 8.081915-1.199208 5.473661 3.415925 5.510397 3.270566 8.41254-2.689132 2.167422-4.469774 4.371581-8.903208 6.722684-13.263962.55104-1.01751 1.763327-2.471095 2.718462-2.471095 5.143038 0 10.763642-1.598943 14.694392 3.852 2.277631 3.306906 4.628734 3.306906 7.347196.218038 5.326717-5.632641 11.020794-10.901887 16.567927-16.2801509 2.938879-2.8708302 3.673598 0 4.29811 1.8169812 1.983743 4.3244147 3.673598 8.7215097 5.767549 13.0459247.417664.701447.937554 1.338175 1.542911 1.88966.536099-.71183.991886-1.479526 1.359231-2.289396 2.608255-7.958377 5.106301-15.989434 7.788028-23.9114718.577441-1.0968986 1.334666-2.0915449 2.240895-2.9435094.976516.7768396 1.841626 1.6815167 2.571518 2.6891321 4.702206 8.1400755 9.220731 16.3891701 13.959672 24.5292451 2.461311 4.251736 5.473661 7.086227 11.020794 3.633962 1.313688-.945679 2.984181-1.265188 4.559548-.872085 1.575367.393102 2.892784 1.458185 3.59584 2.907104 4.996093 8.394453 13.775992 8.212755 22.041588 9.048566 3.290782.278925 6.350988 1.786023 8.559483 4.215397 4.334846 4.469773 4.959357 4.251735 8.155388-1.308227 1.993155-3.770277 4.3685-7.514565 6.802891-10.829207 2.925526-3.061931 6.606143-3.669501 6.40927-3.161548-.196873.507954.335024.497267-.139132.925678.139132.151622.203083.152985 0 .537298"/>
      <path fill="#AE82D7" d="M291.592432 258.494259l-10.549189 19.663519-13.526486.583703c-3.675676-7.004444-4.484325-16.562592-8.784865-23.858888-1.948108 4.669629-4.006487 10.689074-5.513514 15.103333-1.809768 4.644738-4.722546 8.787201-8.49081 12.07537-4.851892 4.779074-9.850811 9.412223-14.261622 14.592593-1.906277 2.804215-5.120569 4.451398-8.527905 4.370175-3.407337-.081222-6.538249-1.879659-8.30669-4.771471-2.205405-3.137408-4.227027-6.347778-6.873513-10.360741-5.403243 5.289815-11.027027 10.141852-15.915676 15.650555-1.965013 2.89942-5.564064 4.246276-8.968648 3.356297-4.790791-.603719-9.616199-.896193-14.445406-.875556l-11.210811 20.210741c-.983452-.19814-1.919355-.582083-2.756756-1.130926-4.410811-3.648148-8.674595-7.770556-13.011892-11.601111-1.9848652-1.751111-4.0064868-3.429259-6.101622-5.180371-8.6010811 2.334815-14.0043243 8.35426-19.187027 14.592593-4.4108108-.656667-5.3664865-4.852037-8.012973-7.296296-1.4702702-1.313334-2.5729729-3.100926-4.1167567-4.304815-5.6237838-4.231852-7.7924325-4.341296-13.9308108-.510741-3.172077 2.565114-7.6741947 2.728956-11.0270271.401297-3.6756756-2.480741-7.0572973-4.925-10.4021621-7.62463-1.141079-1.088749-2.1411977-2.314216-2.9772973-3.648148-5.8443244.620185-7.5718919 5.18037-11.8724325 7.661111l-13.67351347-14.592593c4.52108108-.364815 5.69729729 2.69963 7.6454054 4.341297 1.94810811 1.641666 4.07999997 3.867037 6.13837837 5.873518l11.4681081-8.244815c4.2637838 7.916482 11.027027 11.82 18.5989189 15.650556 1.8378379-.912037 3.6756757-1.787593 5.6237838-2.845556 4.8810248-3.716368 11.8106882-3.131363 15.9891892 1.349815 3.4183784 3.064445 6.3956757 6.63963 9.52 9.922963 3.6756757-3.173889 7.3513514-6.63963 11.027027-9.558148 5.8075676-4.304815 9.225946-6.566667 17.0183782 1.860555 3.675676 3.94 8.123243 7.296297 12.423784 10.944445 3.197838-5.399259 6.101622-10.032408 8.711351-14.592593 1.463124-3.351607 4.989573-5.33248 8.637838-4.852037l14.077838 1.130926c6.836757-5.91 12.681081-14.227778 21.686487-19.481111.955675 1.130926 1.727567 1.897037 2.352432 2.809074 2.131892 3.173889 4.006486 6.530185 6.358919 9.485185 1.135745 1.791716 3.045149 2.95865 5.168396 3.15867 2.123247.200019 4.219754-.589541 5.674847-2.137188 7.168896-6.700076 13.920126-13.82715 20.216216-21.341667 2.960001-4.798178 5.271008-9.962068 6.873514-15.358704 1.507027-3.648148 2.793513-7.296296 4.19027-10.944444h1.24973c3.234594 9.010926 6.505946 18.021852 9.997838 27.762407l8.637838-1.24037 11.357837-18.605556c11.027027-.328333 21.723244 0 31.28-5.070925 2.867027-6.63963 5.623784-13.133334 8.417298-19.663519 4.263783-9.874321 8.515315-19.7608024 12.754594-29.6594444 2.775858-8.0584012 10.148815-13.6796904 18.709189-14.2642593 3.36493-.0446266 6.324704-2.218457 7.351352-5.3992592 1.169585-1.9377489 2.618432-3.6952999 4.30054-5.2168519l9.336217.7661111c4.784696-10.3822302 8.479847-21.2257412 11.027027-32.359074 2.340148.4743385 3.631653 2.5603096 4.894174 4.1014325 1.553402 1.8961924 2.979685 3.3585872 5.25069 4.727086l12.12973-13.862963 7.718919 10.9444445 12.056216-7.1503704 9.40973 10.2148148 9.042162-9.7405556c14.702703 7.952963 18.378379 21.7064815 22.348108 35.8248149 3.981864-2.4121823 7.025749-6.0889115 8.637838-10.4337037 3.85946-11.6011112 7.351351-23.3116667 11.027027-34.98574078.588108-1.86055556.882162-3.64814815 1.323243-5.83703704l13.452973-.94851852L521 144.4531481l-.450467 3.9764815-11.834938-16.92740738h-9.225946C495.812973 143.5775926 492.137297 155.5435185 488.461622 167.4c-1.217208 3.5781896-2.937241 6.9679279-5.10919 10.0688889-2.310911 2.8998591-4.829129 5.6308661-7.535135 8.1718518-.867698-1.4265918-1.62936-2.9141215-2.278919-4.4507407-1.617297-4.852037-2.94054-9.85-4.741621-14.5925926-1.88039-5.8631104-5.382879-11.0838187-10.108108-15.0668518-1.539544-1.1123002-3.134341-2.1472429-4.778379-3.100926l-8.417297 9.0838889c-1.960955-.6315708-3.298284-2.1280454-4.61871-3.3198148-2.416895-2.1814045-4.29276-4.4971043-6.408317-6.7855556l-11.027027 6.7855556-8.784865-9.3027778-11.357838 14.2277778-7.902702-8.6825926c-4.557838 10.3972222-6.138379 21.2687037-12.276757 30.0607408l-10.034595-.7296297c-1.029189 1.8970371-2.131892 3.6481482-3.014054 5.6181482-1.004081 2.7398815-3.605662 4.5821646-6.542703 4.6331481-9.703783.2188889-15.695135 5.4722222-19.334054 13.9359259-3.969729 9.2662963-7.976216 18.5325926-11.872432 27.8353706-2.572973 6.274815-4.741622 12.695555-7.351351 18.897407-1.769193 3.289987-5.081337 5.481547-8.821622 5.837037-5.40353.918183-10.85054 1.56352-16.32 1.933519-2.83027.218889-5.513514.036481-8.233514.036481z"/>
    </g>
    <path stroke="#F5A623" stroke-dasharray="4 14" stroke-linecap="square" stroke-width="4" d="M41 344h480"/>
    <path stroke="#636363" d="M528 101h144v74H528z"/>
    <path fill="#E969C2" d="M536 107h30v14h-30z"/>
    <path fill="#AE82D7" d="M536 138h30v4h-30z"/>
    <path fill="#8BD4FA" d="M536 161h30v4h-30z"/>
    <text fill="#636363" font-family="Roboto-Light, Roboto" font-size="12" font-weight="300" transform="translate(528 101)">
      <tspan x="53.3740234" y="18">Net migration</tspan>
    </text>
    <text fill="#636363" font-family="Roboto-Light, Roboto" font-size="12" font-weight="300" transform="translate(528 101)">
      <tspan x="52.7353516" y="42.2">Immigration</tspan>
    </text>
    <text fill="#636363" font-family="Roboto-Light, Roboto" font-size="12" font-weight="300" transform="translate(528 101)">
      <tspan x="52.21875" y="65">Emigration</tspan>
    </text>
    <text fill="#636363" font-family="Roboto-Regular, Roboto" font-size="16">
      <tspan x="-.6953125" y="80">Migration (thousands)</tspan>
    </text>
    <text fill="#000" font-family="Roboto-Regular, Roboto" font-size="24">
      <tspan x="98.1308594" y="22">Long-term International Migration</tspan> <tspan x="166.601562" y="54" font-family="Roboto-Light, Roboto" font-size="16" font-weight="300">UK, 1970 to 2016 (annual totals)</tspan>
    </text>
    <use stroke="#636363" xlink:href="#a"/>
  </g>
</svg>